# xmcd CD database file
# Copyright (C) 1996 Ti Kan
#
# Track frame offsets:
#  182
#  14232
#  33120
#  54432
#  83832
#  97732
#  115632
#  150507
#  169657
#  186607
#
# Disc length: 2871 seconds
#
# Revision: 2
# Processed by: cddbd v1.4PL0 Copyright (c) Steve Scherf et al.
# Submitted via: CDWizzard Release:4.12
#
DISCID=710b350a
DTITLE=Mario Bauza And The Afro-Cuban Jazz Orchestra - 944 Columbus
DYEAR=1900
DGENRE=
TTITLE0=Cubauza
TTITLE1=Zambia
TTITLE2=La Clave de la Ya Ya
TTITLE3=Lourdes' Lullaby
TTITLE4=Congratulations to Someone
TTITLE5=Heatwave
TTITLE6=Canto Lucumi
TTITLE7=Night In Tunisia
TTITLE8=Biri Bi Kum Bi
TTITLE9=Chano
EXTD=
EXTT0=
EXTT1=
EXTT2=
EXTT3=
EXTT4=
EXTT5=
EXTT6=
EXTT7=
EXTT8=
EXTT9=
PLAYORDER=
